:SAMPLES-PER-SECOND 30
:FULLY-SPECIFIED
:DEGREES
571
root  45.1393 38.7173 8.19314 170.074 -37.9581 177.62
RightUpLeg  -14.2883 -7.46444 -8.01598
RightLeg  31.9882 1.91596 1.06197
RightFoot  -3.286 -0.460708 6.21567
RightToes  -1.33073e-015 0 -3.6325e-017
Spine  11.7337 -1.2408 -5.03045
Spine1  10.9174 -3.73794 4.93329
HEad  27.6262 -14.6638 -73.6179
LeftShoulder1  0.538718 1.82862 -25.9572
LeftArm  -3.86182 -1.72314 -40.8634
LeftForeArm  31.8465 -75.3889 -47.0861
LeftHand  -0.00125781 3.33839 -1.05552
RightShoulder  -0.433553 -4.82945 25.7992
RightArm  -13.4497 -17.146 31.8866
RightForeArm  92.3284 77.5094 116.836
RightHand  -0.123306 1.96118 -2.10235
LeftUpLeg  8.20228 8.12932 -2.81476
LeftLeg  15.9801 0.467895 -0.484143
LeftFoot  -15.1631 0.196111 3.14618
LeftToes  -1.03319e-009 7.52634e-011 -3.26162e-012
572
root  44.4898 38.7299 7.82037 169.887 -42.1959 178.16
RightUpLeg  -13.8215 -6.36822 -5.98683
RightLeg  24.3317 1.56878 0.595894
RightFoot  -3.09156 -0.498314 6.61388
RightToes  -1.33073e-015 0 -3.6325e-017
Spine  11.3478 -1.45433 -4.55541
Spine1  10.9389 -3.7214 4.6959
HEad  29.4375 -13.4691 -72.5204
LeftShoulder1  0.603247 1.63915 -26.1657
LeftArm  -4.29066 -1.49954 -40.1127
LeftForeArm  35.3458 -76.0719 -50.1902
LeftHand  0.0122786 3.39473 -1.91141
RightShoulder  -0.429117 -4.81481 25.7866
RightArm  -13.6848 -17.0217 31.6253
RightForeArm  95.9736 77.1421 120.11
RightHand  -0.0380684 1.62558 -0.790615
LeftUpLeg  9.28562 7.35562 -2.91181
LeftLeg  15.6559 -2.69896 -0.83121
LeftFoot  -15.5406 0.238771 3.96914
LeftToes  -1.03319e-009 7.52634e-011 -3.26162e-012
573
root  43.7589 38.7253 7.39401 169.616 -46.5985 178.652
RightUpLeg  -12.8768 -4.8597 -4.72252
RightLeg  15.9017 1.50724 0.182013
RightFoot  -2.71577 -0.488209 6.21891
RightToes  -1.33073e-015 0 -3.6325e-017
Spine  10.8543 -1.81378 -4.49734
Spine1  11.0401 -4.11526 5.21808
HEad  30.961 -12.5976 -71.2777
LeftShoulder1  0.578573 1.72238 -26.2946
LeftArm  -4.59776 -1.0935 -39.9863
LeftForeArm  36.7224 -76.4936 -52.8775
LeftHand  0.00886703 2.96066 -1.19012
RightShoulder  -0.320079 -4.50197 24.967
RightArm  -13.5846 -17.5436 31.8308
RightForeArm  98.8077 76.5484 124.029
RightHand  -0.0650605 1.67117 -1.20955
LeftUpLeg  10.6733 6.16486 -3.1847
LeftLeg  15.2086 -5.62322 -0.932478
LeftFoot  -15.9072 0.290445 4.8792
LeftToes  -1.03319e-009 7.52634e-011 -3.26162e-012
574
root  42.9282 38.6509 6.86441 170.101 -50.0851 178.755
RightUpLeg  -12.7599 -3.30938 -3.76495
RightLeg  8.5061 4.67862 -0.131612
RightFoot  -2.72573 -0.54824 7.02897
RightToes  -1.33073e-015 0 -3.6325e-017
Spine  9.09786 -1.85411 -4.30085
Spine1  11.9077 -4.02277 5.13069
HEad  32.1311 -11.0477 -69.5728
LeftShoulder1  0.530822 1.87295 -26.3615
LeftArm  -4.86022 -0.849184 -39.8792
LeftForeArm  39.5809 -76.9363 -55.5199
LeftHand  0.0351557 2.50302 -2.02806
RightShoulder  -0.29903 -4.44506 24.6035
RightArm  -13.8842 -17.5536 31.9606
RightForeArm  100.541 76.0905 126.557
RightHand  -0.0973255 2.12462 -1.68445
LeftUpLeg  11.7352 5.55254 -3.36193
LeftLeg  15.0032 -8.07377 -1.2683
LeftFoot  -16.5907 0.38183 6.13688
LeftToes  -1.03319e-009 7.52634e-011 -3.26162e-012
575
root  42.0403 38.5114 6.30553 169.941 -54.1286 178.476
RightUpLeg  -11.828 -4.09715 -3.23248
RightLeg  3.34895 11.4006 -0.910352
RightFoot  -2.71661 -0.710779 9.15956
RightToes  -1.33073e-015 0 -3.6325e-017
Spine  8.66606 -1.9313 -4.27986
Spine1  12.1802 -4.01614 4.87885
HEad  33.6273 -10.2153 -67.4763
LeftShoulder1  0.588905 1.69989 -26.4686
LeftArm  -4.89859 -1.00609 -39.7092
LeftForeArm  40.5599 -77.1167 -56.8746
LeftHand  0.026141 2.66609 -1.76209
RightShoulder  -0.30943 -4.48248 24.4696
RightArm  -14.3993 -18.1191 32.0662
RightForeArm  103.649 75.4586 129.878
RightHand  -0.0952582 1.39058 -1.7263
LeftUpLeg  13.7807 4.93273 -3.49135
LeftLeg  15.214 -11.1834 -1.76304
LeftFoot  -17.5541 0.496848 7.21522
LeftToes  -1.03319e-009 7.52634e-011 -3.26162e-012
576
root  41.0829 38.324 5.71264 169.936 -57.551 178.09
RightUpLeg  -11.7294 -3.51415 -2.90606
RightLeg  2.38686 16.3077 -1.70411
RightFoot  -2.29705 -0.746441 9.22083
RightToes  -1.33073e-015 0 -3.6325e-017
Spine  8.19945 -1.93204 -4.10745
Spine1  12.5207 -3.89873 4.50706
HEad  34.2299 -7.11683 -65.1181
LeftShoulder1  0.58484 1.71294 -26.4823
LeftArm  -5.14458 -1.03883 -39.5573
LeftForeArm  42.42 -77.3738 -58.8147
LeftHand  0.0346625 2.53991 -1.92344
RightShoulder  -0.350338 -4.6068 24.7192
RightArm  -14.2325 -17.7058 31.6706
RightForeArm  103 75.1309 130.987
RightHand  -0.186058 1.81168 -3.17306
LeftUpLeg  15.7978 3.74129 -3.95103
LeftLeg  15.5572 -12.6559 -1.77881
LeftFoot  -18.4618 0.638193 8.42156
LeftToes  -1.03319e-009 7.52634e-011 -3.26162e-012
577
root  40.0185 38.0264 5.00714 169.867 -59.8839 178.66
RightUpLeg  -12.4281 -1.65753 -2.26464
RightLeg  4.67084 15.5929 -1.1007
RightFoot  -2.39032 -0.779058 9.62844
RightToes  -1.33073e-015 0 -3.6325e-017
Spine  6.73397 -1.72761 -3.6391
Spine1  12.6521 -3.65313 4.49454
HEad  34.5008 -5.26604 -62.5926
LeftShoulder1  0.521854 1.9193 -26.7631
LeftArm  -5.57641 -0.143798 -39.3085
LeftForeArm  46.681 -77.8695 -62.943
LeftHand  0.0387186 2.79002 -2.49043
RightShoulder  -0.312937 -4.49566 24.4259
RightArm  -14.361 -17.6353 31.3663
RightForeArm  105.323 74.8539 132.433
RightHand  -0.138514 1.11558 -2.59114
LeftUpLeg  16.8161 2.14447 -3.88156
LeftLeg  17.0354 -13.0147 -2.07665
LeftFoot  -20.4024 0.894368 9.71573
LeftToes  -1.03319e-009 7.52634e-011 -3.26162e-012
578
root  38.938 37.804 4.34111 169.357 -63.0093 179.671
RightUpLeg  -12.8168 -0.038687 -2.12504
RightLeg  8.35022 12.5296 0.0304722
RightFoot  -0.56699 -0.762108 8.50467
RightToes  -1.33073e-015 0 -3.6325e-017
Spine  5.20264 -1.92878 -3.18981
Spine1  13.399 -4.0125 5.134
HEad  34.3331 -4.44418 -59.6382
LeftShoulder1  0.477601 2.06299 -26.9793
LeftArm  -6.02029 0.280281 -39.1096
LeftForeArm  49.9171 -78.1853 -66.264
LeftHand  0.0284303 3.03449 -2.30268
RightShoulder  -0.308142 -4.48071 24.4034
RightArm  -14.0925 -17.3764 31.0293
RightForeArm  106.085 74.5621 133.557
RightHand  -0.126551 1.23802 -2.34266
LeftUpLeg  17.9796 -2.32421 -4.8413
LeftLeg  17.9919 -10.5332 -1.90671
LeftFoot  -21.6089 1.06645 10.3982
LeftToes  -1.03319e-009 7.52634e-011 -3.26162e-012
579
root  37.8499 37.7154 3.71182 167.134 -65.9908 -177.63
RightUpLeg  -13.1979 2.28624 -1.44145
RightLeg  11.9845 11.2354 0.812511
RightFoot  5.75569 -0.583455 3.99889
RightToes  -1.33073e-015 0 -3.6325e-017
Spine  4.51617 -2.24259 -1.10939
Spine1  13.2591 -4.12378 5.10917
HEad  34.2759 -3.22345 -56.6043
LeftShoulder1  0.431271 2.20694 -27.0887
LeftArm  -5.96047 1.24686 -38.3351
LeftForeArm  54.2644 -78.5382 -71.0498
LeftHand  0.0151293 3.12143 -1.7625
RightShoulder  -0.354312 -4.6226 24.6322
RightArm  -13.7056 -17.7955 30.6579
RightForeArm  108.059 73.9497 135.854
RightHand  -0.13836 1.79441 -2.4027
LeftUpLeg  19.4871 -7.54778 -5.33221
LeftLeg  18.7083 -7.39111 -1.97292
LeftFoot  -21.9964 1.06424 9.97191
LeftToes  -1.03319e-009 7.52634e-011 -3.26162e-012
580
root  36.6988 37.5889 3.08674 164.361 -68.05 -174.767
RightUpLeg  -13.7828 5.30463 -1.65526
RightLeg  17.5882 6.71676 2.03733
RightFoot  5.28748 -0.399617 2.964
RightToes  -1.33073e-015 0 -3.6325e-017
Spine  4.10392 -2.31845 1.60843
Spine1  13.1962 -3.71339 3.96317
HEad  33.4254 -1.21599 -53.0463
LeftShoulder1  0.368366 2.39763 -27.128
LeftArm  -6.13062 2.16395 -37.7262
LeftForeArm  58.3738 -78.7835 -75.3589
LeftHand  0.0116597 3.24225 -2.10455
RightShoulder  -0.433713 -4.869 24.8698
RightArm  -13.3903 -17.7814 30.6543
RightForeArm  108.571 73.803 136.375
RightHand  -0.159996 1.90789 -2.6861
LeftUpLeg  19.8749 -9.55898 -4.70268
LeftLeg  22.5504 -6.81187 -2.82927
LeftFoot  -21.8642 0.890455 8.2527
LeftToes  -1.03319e-009 7.52634e-011 -3.26162e-012
